<svg transform="scale(1)" version="1.1" id="X75P52GJjK" xmlns="http://www.w3.org/2000/svg" xmlns:xlink="http://www.w3.org/1999/xlink" x="0px" y="0px" viewBox="0 0 500 500" xml:space="preserve" class="pbimage_pbimage__wrapper__image__0LEis false"><title>Coffee</title><style type="text/css"> .st0{fill:#000001;} .st1{fill:#F2EBEB;} .st2{fill:#3299F5;}
 .st2{fill:#3299F5;}
 .st1{fill:#F2EBEB;}
 .st0{fill:#000001;}</style><g id="coffee"><path class="st0" d="M375.7,419.1c0,0-1.9,8.5,9.8,22.1s33.8,10.6,34.1,0S381.2,398.1,375.7,419.1z" fill="#000001"></path><path class="st1" d="M378.7,418.9c2-0.4,4.1-0.2,6,0.3c2,0.6,3.8,1.7,5.3,3.3c0.4,0.4,0.7,0.8,1,1.2c0.3,0.4,0.6,0.9,0.8,1.4
		c0.5,1,0.9,1.8,1.3,2.7c2.7,5.1,6.9,9.3,12,12c1.7,0.9,3.5,1.6,5.4,2c1.9,0.4,3.9,0.7,5.8,0.6c-2,0.4-4,0.5-6,0.3
		c-2-0.2-4-0.8-5.9-1.5c-1.9-0.8-3.7-1.8-5.3-3.1c-1.6-1.3-3.1-2.7-4.4-4.3c-1.3-1.6-2.4-3.3-3.3-5.2c-0.4-1-0.8-1.9-1.2-2.7
		c-0.2-0.4-0.4-0.8-0.7-1.2c-0.2-0.4-0.5-0.8-0.8-1.1C386.5,420.5,382.7,419,378.7,418.9z" fill="#F2EBEB"></path><path class="st0" d="M142.1,453.2c0,0,7.8,3.8,23.8-4.4s18.3-30.4,8-33.1S122.9,443,142.1,453.2z" fill="#000001"></path><path class="st1" d="M142.5,450.2c0.1-2,0.7-4,1.8-5.8c1-1.8,2.6-3.3,4.4-4.4c0.5-0.3,0.9-0.5,1.4-0.7c0.5-0.2,1-0.4,1.5-0.5
		c1.1-0.3,2-0.5,2.9-0.6c1.9-0.5,3.7-1.2,5.4-2c3.5-1.7,6.5-4,9.1-6.9c1.3-1.5,2.3-3.1,3.2-4.8c0.9-1.8,1.5-3.6,2-5.5
		c-0.1,2-0.4,4-1.1,5.9c-0.7,1.9-1.7,3.7-2.9,5.4c-1.2,1.6-2.6,3.1-4.2,4.4c-1.6,1.3-3.3,2.4-5.2,3.3c-1.9,0.9-3.8,1.5-5.8,2
		c-1,0.2-2.1,0.3-2.9,0.5c-0.5,0.1-0.9,0.2-1.3,0.4c-0.4,0.1-0.9,0.3-1.3,0.5C146,443,143.6,446.4,142.5,450.2z" fill="#F2EBEB"></path><path class="st0" d="M81,436.3c0,0,3.1,8.1,20.4,13s34.1-9.7,28.5-18.8S74,415.7,81,436.3z" fill="#000001"></path><path class="st1" d="M83.4,434.4c1.5-1.4,3.3-2.4,5.2-3c2-0.6,4.1-0.7,6.2-0.2c0.5,0.1,1,0.3,1.5,0.5c0.5,0.2,1,0.4,1.4,0.7
		c1,0.5,1.8,1,2.6,1.5c1.7,0.9,3.4,1.7,5.3,2.2c3.7,1.2,7.5,1.5,11.3,1.1c1.9-0.2,3.8-0.6,5.6-1.3c1.8-0.7,3.6-1.6,5.2-2.7
		c-1.4,1.4-3,2.6-4.8,3.6c-1.8,0.9-3.8,1.6-5.8,2c-2,0.4-4.1,0.5-6.1,0.3c-4.1-0.3-8.1-1.5-11.6-3.6c-0.9-0.6-1.7-1.1-2.5-1.6
		c-0.8-0.5-1.6-0.9-2.5-1.2C90.8,431.5,86.8,432.3,83.4,434.4z" fill="#F2EBEB"></path><path class="st0" d="M378,435.7c0,0-3.5-8.8-21.8-14.7s-35.5,9.4-29.3,19.3S386,458,378,435.7z" fill="#000001"></path><path class="st1" d="M375.6,437.6c-1.6,1.5-3.5,2.5-5.5,3.1c-2.1,0.6-4.4,0.5-6.5-0.1c-2-0.7-4-1.7-5.7-3c-1.7-1-3.6-1.9-5.5-2.5
		c-3.8-1.4-7.8-1.9-11.9-1.7c-2,0.2-4,0.6-5.9,1.2c-1.9,0.7-3.8,1.7-5.5,2.8c1.5-1.5,3.2-2.8,5.1-3.7c1.9-0.9,4-1.6,6.1-1.9
		c2.1-0.3,4.3-0.3,6.4-0.1c2.1,0.3,4.2,0.7,6.3,1.4c2,0.7,4,1.7,5.8,2.8c0.9,0.6,1.8,1.2,2.6,1.8c0.4,0.3,0.8,0.5,1.3,0.7l0.6,0.3
		l0.7,0.2C367.9,440.4,372.2,439.9,375.6,437.6z" fill="#F2EBEB"></path></g><g id="cup"><path class="st1" d="M161.2,201.6c0,0,20.1,225.8,26.8,239.2s76,25.3,120,0c0,0,35.8-216.8,28.3-239.2S161.2,201.6,161.2,201.6z"></path><path class="st2" d="M161.2,162.4c0,0-10.3,12.4-10.3,19.1s-3.1,20.2,0,25.4s20.7,13.4,83.8,20.2s112.3-11.4,114.9-24.8
		s-5.2-27.9-5.2-27.9l-9.3-11.9c0,0-1.8-12.9-5.2-20.2s-59.1-20.4-111.8-15.5c-48.7,4.5-50.2,19.1-50.2,19.1L161.2,162.4z"></path><path class="st2" d="M168.4,278.3c0,0,0.3,0.2,0.8,0.6c4.9,3.9,32.6,23.4,84.6,20.9c57.7-2.8,77.9-21.6,77.9-21.6s2.9-4.3,2.9,6
		s-7.4,75.7-15.2,84s-77.4,39-145.1-2.4C174.3,365.9,165,275.7,168.4,278.3z"></path><path class="st0" d="M151.9,177.1c-0.2,1.1-0.2,2.3,0.1,3.4c0.3,1.1,0.7,2.1,1.2,3.1c0.1,0.2,0.2,0.5,0.4,0.7l0.5,0.7
		c0.3,0.5,0.6,0.9,1,1.3c0.7,0.8,1.6,1.6,2.4,2.3c0.8,0.7,1.7,1.4,2.7,2c0.9,0.6,1.9,1.2,2.9,1.8l3,1.6l3.1,1.3
		c8.3,3.5,17.2,5.4,26,7c17.8,2.8,35.8,4.3,53.9,4.4c18,0.2,36.1-0.7,53.8-4.3c8.8-1.9,17.5-4.4,25.3-8.9c3.9-2.2,7.4-5.1,10.1-8.7
		c2.7-3.6,4.2-8,4.3-12.5c0.1,4.6-1.3,9.1-3.9,12.9c-2.7,3.7-6.1,6.9-10,9.2c-3.9,2.4-8.1,4.3-12.4,5.8c-4.3,1.5-8.7,2.8-13.1,3.8
		c-8.9,1.9-17.9,3.3-27,3.9c-9,0.7-18.1,1-27.2,0.9S231,208,222,207.2c-9.1-0.7-18.1-1.9-27-3.5c-8.9-1.8-17.8-3.9-26.1-7.6
		l-3.1-1.4l-3-1.7c-1-0.6-1.9-1.2-2.9-1.9c-0.9-0.6-1.8-1.4-2.7-2.1c-0.9-0.8-1.7-1.6-2.4-2.5c-0.4-0.4-0.7-0.9-1-1.4l-0.5-0.7
		c-0.1-0.2-0.3-0.5-0.4-0.8c-0.3-0.5-0.5-1-0.7-1.6c-0.2-0.5-0.3-1.1-0.4-1.6C151.6,179.3,151.7,178.2,151.9,177.1z"></path><path class="st0" d="M161.2,162.4c-0.8,1.9-1,4.1-0.4,6.1c0.6,2,1.6,3.8,3,5.4c2.9,3,6.4,5.4,10.2,7c3.8,1.7,7.7,3.2,11.8,4.3
		c4,1.1,8.1,2.1,12.2,2.8c8.2,1.5,16.6,2.7,24.9,3.5s16.7,1.3,25.1,1.5c16.8,0.4,33.6-0.5,50-3.9c4.1-0.8,8.1-1.9,12.1-3.3
		c4-1.3,7.8-2.9,11.5-4.9c3.7-1.9,7.1-4.4,10-7.5c2.9-3,4.9-6.9,5.6-11l-0.3,1.6c0,0.3-0.1,0.5-0.1,0.8l-0.2,0.8
		c-0.1,0.5-0.3,1-0.5,1.5l-0.6,1.5c-0.2,0.5-0.5,1-0.7,1.4c-0.3,0.5-0.5,0.9-0.8,1.4c-0.6,0.9-1.2,1.7-1.9,2.5
		c-2.8,3.2-6.2,5.9-9.9,8c-3.7,2.1-7.6,3.8-11.6,5.2c-4,1.4-8.1,2.6-12.2,3.6c-4.1,1-8.3,1.8-12.5,2.3s-8.4,1.1-12.6,1.4
		c-8.4,0.6-16.9,0.8-25.3,0.7s-16.9-0.8-25.3-1.7c-8.4-0.8-16.8-2.1-25.1-3.8c-4.1-0.8-8.2-1.9-12.3-3.1c-4.1-1.2-8-2.7-11.9-4.6
		c-3.9-1.8-7.3-4.4-10.2-7.6c-1.4-1.6-2.4-3.6-2.9-5.6C160.1,166.5,160.3,164.3,161.2,162.4z"></path><path class="st0" d="M168,145.8c-0.5,1.9-0.4,3.9,0.3,5.8c0.7,1.8,1.7,3.5,3.1,4.9c2.7,2.8,6,5,9.5,6.6c3.5,1.7,7.2,3,11,4.1
		c1.9,0.6,3.8,1,5.7,1.5s3.8,0.9,5.8,1.2c7.7,1.4,15.5,2.4,23.3,3.1s15.7,1.1,23.5,1.1c15.7,0.2,31.4-1.1,46.6-4.8
		c7.5-1.9,15-4.5,21.7-8.6c3.4-2,6.4-4.5,8.8-7.5c1.2-1.5,2.1-3.3,2.6-5.1c0.6-1.9,0.6-3.9,0.1-5.8c0.6,1.9,0.7,3.9,0.2,5.9
		c-0.5,1.9-1.3,3.8-2.5,5.4c-2.4,3.2-5.4,5.9-8.7,8c-6.7,4.3-14.2,7.1-21.8,9.2c-3.8,1-7.7,1.9-11.6,2.6c-1.9,0.4-3.9,0.6-5.9,0.9
		s-3.9,0.5-5.9,0.7c-7.9,0.8-15.8,1.2-23.7,1.1c-7.9-0.1-15.8-0.6-23.6-1.3c-7.9-0.7-15.7-1.8-23.4-3.4c-1.9-0.4-3.9-0.9-5.8-1.4
		s-3.8-1-5.7-1.6c-3.8-1.2-7.5-2.6-11-4.4c-3.6-1.8-6.8-4.2-9.5-7.1c-1.3-1.5-2.4-3.2-3-5.1C167.4,149.8,167.4,147.7,168,145.8z"></path><path class="st0" d="M198.2,142.2c0,0,43.3-4.1,74-3.7s33.1,4,9.3,7.3S186,147.1,198.2,142.2z"></path><path class="st0" d="M237.4,158.6c0,0,18.6-2.9,18.6,0S227,169.9,237.4,158.6z"></path><path class="st2" d="M235.2,115c-1.3-0.9-2.5-1.9-3.6-3c-0.6-0.6-1.1-1.2-1.6-1.8s-1-1.3-1.4-1.9c-1.8-2.6-3.1-5.6-3.9-8.7
		c-0.4-1.6-0.7-3.1-0.8-4.7c-0.1-0.8,0-1.6,0-2.4c0-0.8,0-1.6,0.1-2.4c0.1-1.6,0.4-3.2,0.7-4.7l0.6-2.3c0.2-0.8,0.5-1.5,0.8-2.3
		l0.8-2.2l0.8-2.2l0.8-2.2l0.6-2.3c0.9-2.9,1.4-5.9,1.6-9c0.2-3-0.2-6.1-1.1-9c-0.2-0.7-0.5-1.4-0.8-2.1c-0.3-0.7-0.7-1.4-1.1-2
		c-0.8-1.3-1.8-2.5-3-3.5c1.3,0.8,2.5,1.9,3.4,3.2c0.5,0.6,0.9,1.3,1.3,2c0.4,0.7,0.8,1.4,1.1,2.2c1.2,3,1.8,6.2,1.7,9.4
		c-0.1,3.2-0.5,6.4-1.4,9.4c-0.2,0.8-0.4,1.5-0.6,2.3l-0.8,2.2l-0.8,2.2l-0.8,2.2c-0.2,0.7-0.5,1.4-0.8,2.2l-0.5,2.2
		c-0.2,0.7-0.4,1.5-0.5,2.2l-0.3,2.3c-0.1,0.7-0.2,1.5-0.1,2.3c0,0.8-0.1,1.5,0,2.3c0.1,1.5,0.3,3,0.6,4.5
		C227.4,105.4,230.6,110.9,235.2,115z"></path><path class="st2" d="M248.9,112.8c-2-1.8-3.6-4-4.8-6.3c-1.3-2.4-2.1-5-2.5-7.6c-0.1-0.7-0.2-1.3-0.2-2v-2c0-0.7,0.1-1.4,0.2-2
		l0.1-1l0.3-1c0.7-2.6,1.9-5,3.6-7.1c-1,2.4-1.7,4.9-2.1,7.4c-0.4,2.5-0.4,5,0,7.5c0.4,2.5,1.1,4.9,2,7.3
		C246.5,108.2,247.6,110.5,248.9,112.8z"></path><path class="st1" d="M171.2,287.9c1.2,5,2.9,10,4.9,14.8c1.9,4.8,4.2,9.4,7,13.7c1.4,2.1,3,4.2,4.6,6.1c1.7,1.9,3.5,3.7,5.5,5.2
		c2,1.5,4.2,2.8,6.5,3.9c2.3,1,4.7,1.7,7.2,2c2.5,0.3,5,0.3,7.5,0c2.5-0.3,5-0.8,7.5-1.5c4.9-1.4,9.5-3.8,13.4-7
		c4-3.3,7.3-7.2,9.9-11.6c2.7-4.4,4.7-9.3,5.9-14.3c-0.4,2.6-1.1,5.1-1.9,7.6c-0.9,2.5-1.9,4.9-3.1,7.2c-2.5,4.7-5.8,8.9-9.7,12.4
		c-2,1.8-4.2,3.3-6.5,4.5c-2.3,1.3-4.8,2.3-7.3,3.1c-2.5,0.8-5.1,1.3-7.8,1.6c-2.7,0.3-5.3,0.4-8,0.1c-2.7-0.4-5.3-1.1-7.8-2.1
		c-2.4-1.1-4.7-2.5-6.9-4.2c-2.1-1.7-4-3.6-5.7-5.6c-1.7-2-3.2-4.2-4.6-6.4c-1.4-2.2-2.6-4.6-3.7-7c-1.1-2.4-2.1-4.8-3-7.3
		C173.3,298.2,172,293.1,171.2,287.9z"></path><path class="st1" d="M291,295.2c-0.8,5.2-0.4,10.5,1.1,15.5c1.5,4.9,4.3,9.4,8.2,12.8c1.9,1.7,4,3.2,6.3,4.4
		c2.3,1.2,4.7,2.3,7.1,3.2c5,1.7,10.1,2.9,15.4,3.8c-5.4,0-10.7-0.8-15.8-2.3c-5.3-1.5-10.1-4-14.3-7.6c-2-1.8-3.8-4-5.2-6.3
		c-1.4-2.3-2.5-4.9-3.1-7.6C289.3,305.9,289.5,300.4,291,295.2z"></path><path class="st1" d="M324.2,356.6c-11.3-1.1-22.7-2-34-2.7c-11.3-0.7-22.7-1.2-34-1.2c-5.7,0-11.3,0.2-17,0.6
		c-5.6,0.3-11.2,1.3-16.6,2.9c-2.6,1-5.1,2.2-7.6,3.6c-1.2,0.7-2.5,1.4-3.6,2.2l-1.8,1.2l-1.7,1.3c-2.3,1.7-4.2,3.7-5.9,6
		c-0.8,1.1-1.5,2.4-2,3.7c-0.5,1.3-0.8,2.7-0.7,4.1c-0.2-1.4-0.1-2.9,0.4-4.2c0.4-1.4,1.1-2.7,1.8-3.9c1.6-2.4,3.5-4.6,5.7-6.4
		l1.7-1.4l1.8-1.3c1.1-0.9,2.4-1.6,3.6-2.4s2.5-1.4,3.8-2.1l0.9-0.5c0.3-0.2,0.7-0.3,1-0.5c0.6-0.3,1.3-0.6,2-0.8
		c5.5-2,11.2-2.7,16.9-3.3s11.4-0.7,17.1-0.7c11.4,0,22.8,0.6,34.1,1.7S312.9,354.8,324.2,356.6z"></path><path class="st0" d="M272.5,328.9c0,0,2.3-12.8-15.5-5.2s-45.8,32.1-29,41.9S270.4,345.7,272.5,328.9z"></path><path class="st1" d="M228.8,361.2c2.9-3.8,6.1-7.4,9.3-10.9s6.6-6.9,10.1-10.2c1.8-1.6,3.5-3.2,5.3-4.8s3.7-3.1,5.6-4.5
		c1.9-1.5,3.9-2.8,6-4c1.1-0.6,2.1-1.1,3.3-1.6c1.1-0.5,2.3-0.7,3.5-0.7c-1.2,0.2-2.3,0.6-3.3,1.2c-1,0.6-2,1.2-3,1.9
		c-1.9,1.4-3.8,2.9-5.6,4.4c-3.6,3.1-7.1,6.3-10.6,9.6C242.6,348.1,235.9,354.8,228.8,361.2z"></path></g></svg>